PathFileType	4	(X/Y/Z)	c:/Users/goper/Files/vsCode/490R/osim_files/C03/C03_Slow_03.trc
DataRate	CameraRate	NumFrames	NumMarkers	Units                	OrigDataRate	OrigDataStartFrame	OrigNumFrames
250.00	250.00	10	36	mm	250.0	1215	2429
                Frame#	Time	LPSIS			LASIS			LTH1			LTH2			LTH3			LTH4			LLFE			LMFE			LSH1			LSH2			LSH3			LSH4			LLMAL			LMMAL			LCAL			LMTP5			LTOE			LMTP1			RPSIS			RASIS			RTH1			RTH2			RTH3			RTH4			RLFE			RMFE			RSH1			RSH2			RSH3			RSH4			RLMAL			RMMAL			RCAL			RMTP1			RTOE			RMTP5		
		X1	Y1	Z1	X2	Y2	Z2	X3	Y3	Z3	X4	Y4	Z4	X5	Y5	Z5	X6	Y6	Z6	X7	Y7	Z7	X8	Y8	Z8	X9	Y9	Z9	X10	Y10	Z10	X11	Y11	Z11	X12	Y12	Z12	X13	Y13	Z13	X14	Y14	Z14	X15	Y15	Z15	X16	Y16	Z16	X17	Y17	Z17	X18	Y18	Z18	X19	Y19	Z19	X20	Y20	Z20	X21	Y21	Z21	X22	Y22	Z22	X23	Y23	Z23	X24	Y24	Z24	X25	Y25	Z25	X26	Y26	Z26	X27	Y27	Z27	X28	Y28	Z28	X29	Y29	Z29	X30	Y30	Z30	X31	Y31	Z31	X32	Y32	Z32	X33	Y33	Z33	X34	Y34	Z34	X35	Y35	Z35	X36	Y36	Z36

1215	4.85600	502.71198	1041.91931	342.92282	326.77084	982.10992	390.78104	476.83932	639.89917	422.58792	478.51489	578.99316	413.38623	401.35400	633.30505	416.02838	413.18573	574.52600	407.95404	465.98651	491.68692	398.06799	470.78168	491.05475	285.72864	544.11084	312.47946	396.66049	542.31152	265.98575	389.62653	483.18130	312.71161	401.87335	490.13489	265.21460	394.63586	508.37650	104.77709	357.57037	492.01764	118.67349	280.69626	579.48737	69.74258	329.02075	375.70224	51.85010	369.55991	347.24530	66.42736	313.89478	374.09750	55.03649	275.33453	492.52673	1032.15930	230.06305	318.39899	993.66797	186.33542	293.32401	617.22168	165.78691	266.18311	562.73071	180.08974	241.37534	644.40405	140.50673	203.78194	594.46826	149.83868	189.90480	526.38092	163.31633	188.43779	540.20343	276.83115	335.42380	381.37943	164.60056	348.37277	335.60037	164.63222	282.80838	357.23956	142.69624	302.98019	318.98572	145.79871	363.77002	175.96873	165.90128	333.42075	165.39326	240.48892	433.56259	154.90547	217.37485	239.72734	75.95425	212.04118	219.39359	88.25183	170.14684	288.42224	80.08517	116.89128
1216	4.86000	498.41763	1041.69580	342.75021	322.01779	982.06860	390.64975	474.34189	640.15479	422.23016	476.28540	579.30261	413.07404	400.35886	634.67908	417.17929	411.04810	574.47546	407.62988	464.13956	491.92178	397.73279	468.70093	491.15634	285.36334	543.20215	313.04477	396.17484	542.09967	266.75555	389.12906	482.24149	312.94525	401.60214	489.39966	265.51346	394.43079	508.18777	105.06951	357.30026	491.65439	118.97559	280.48392	579.39062	69.92267	328.85602	375.67859	51.88369	369.59134	347.05182	66.26316	313.90015	374.09317	54.98238	275.33841	488.03995	1032.11279	229.93665	313.78391	993.79065	186.24675	288.33594	617.48260	165.84937	260.82941	562.95203	179.81636	235.90263	644.74554	140.65041	198.43680	594.85248	150.06367	183.90190	526.70789	163.54359	183.85001	540.28387	276.99170	326.22467	378.37408	164.66287	338.20328	332.13629	164.53114	273.14896	355.49194	142.73405	292.43488	316.80148	145.68376	349.71573	172.28062	165.57094	319.04547	162.41393	240.09485	418.81552	149.49577	217.18840	223.31606	75.28011	211.35628	203.44624	88.00932	169.58720	272.36652	78.29298	116.38975
1217	4.86400	494.01996	1041.48926	342.60147	317.75775	981.63678	390.80698	471.76178	640.44843	421.86526	473.95535	579.55341	412.68982	396.53180	633.40253	415.48199	408.69089	574.52301	407.20258	462.29684	492.08890	397.37775	466.55655	491.30750	285.06439	542.18854	313.59860	395.73734	540.70544	267.05893	388.80746	481.17218	313.16687	401.33539	488.48450	265.84088	394.04999	507.97870	105.34248	356.99234	491.30731	119.15959	280.20065	579.28198	70.09359	328.63553	375.60248	51.89378	369.56458	347.05893	66.28496	313.86026	373.39951	54.95026	275.06046	483.58398	1031.98523	229.75752	309.22546	993.87799	186.18831	283.21255	617.58136	165.77472	255.54620	563.03809	179.60396	230.72679	644.96417	140.78096	193.05566	595.13885	150.31291	178.42627	527.02002	163.67056	178.18700	540.49872	276.96274	317.51740	375.41653	164.77769	328.03403	328.83575	164.51808	263.55713	353.74023	142.66890	281.87332	314.60782	145.58881	335.98825	168.78651	164.97141	304.53098	159.55560	239.75182	404.66736	144.56345	216.32884	206.71921	74.63101	210.73686	187.39555	87.79244	168.92403	256.13672	76.50102	115.90832
1218	4.86800	489.67432	1041.23926	342.37173	313.69791	980.98102	390.94116	469.10535	640.67804	421.49185	471.60944	579.83185	412.27271	393.81302	633.33594	415.02658	406.31964	574.46631	406.78384	460.31131	492.24890	397.05652	464.65359	491.59106	284.65524	541.18164	314.11014	395.24405	539.92346	267.64078	388.33551	480.30679	313.37936	400.89410	486.08444	267.72473	393.85547	507.72919	105.56194	356.66907	490.95096	119.33600	279.93988	579.16357	70.24622	328.42700	375.53366	51.89798	369.55716	346.79178	66.11105	313.83914	373.24469	54.91190	275.02130	479.10233	1031.86328	229.56384	304.52731	993.77258	186.20123	278.11972	617.59052	165.59979	250.44954	562.98529	179.45676	224.37915	644.93237	141.18431	187.68974	595.22101	150.39299	172.89261	527.18219	163.82985	173.15422	540.47650	277.09781	308.70068	372.35672	164.61105	317.88727	325.68738	164.72305	253.96701	351.91617	142.67104	271.48718	312.50247	145.46054	321.58398	165.24509	164.88661	289.98914	156.76889	239.42433	389.33234	139.17522	216.63954	190.47864	74.06525	210.31355	171.32806	87.51965	168.14995	239.94263	74.87823	115.44088
1219	4.87200	485.35312	1040.90637	342.12955	309.30112	980.88049	390.70056	466.57233	640.97705	421.17865	468.77957	579.70081	411.60638	391.13342	633.17896	414.57370	403.87643	574.47333	406.38715	458.47650	492.38272	396.69296	462.59500	491.72913	284.29999	540.14331	314.61423	394.74612	539.11633	268.16409	387.85687	479.30435	313.56116	400.59097	486.91504	266.36041	393.36099	507.51355	105.89254	356.32071	490.60199	119.54885	279.62506	579.05139	70.42709	328.20908	375.48828	51.88707	369.53650	346.63837	66.01086	313.81360	373.50372	55.03149	275.07547	474.57468	1031.57886	229.39449	299.96124	993.66962	186.11401	273.19571	617.52917	165.35378	244.93898	562.69714	179.39548	220.51314	644.90839	141.02272	182.61043	595.24915	150.67439	167.47119	527.29675	164.01385	168.26205	540.38538	277.16931	300.10931	369.26620	164.17766	308.04190	322.44473	164.37724	244.46609	350.15128	142.54199	261.03293	310.32672	145.31656	307.26230	161.93649	164.63148	275.63907	154.03392	238.93695	374.42361	134.09552	216.25458	173.87079	73.78083	209.87289	155.41663	87.42216	167.64551	223.64580	73.39361	115.04921
1220	4.87600	480.95303	1040.54028	341.93945	305.15720	980.15393	390.81665	463.85034	641.11316	420.84818	466.71066	580.20483	411.49112	388.53262	633.05640	414.15845	401.44998	574.33374	405.83542	456.54807	492.49103	396.27057	460.36731	491.66403	283.96976	539.20001	315.13535	394.22842	538.32336	268.63382	387.43555	478.34412	313.78821	400.21451	486.21988	266.53503	393.05981	507.37131	106.16508	356.01901	490.27512	119.73266	279.29395	578.98450	70.69405	327.98969	375.34732	51.93575	369.62244	346.68039	65.96810	313.82565	373.18558	54.88617	275.01550	470.10626	1031.31030	229.21573	295.28796	993.52618	186.03625	268.45493	617.34137	165.15819	240.22232	562.61285	179.07239	214.69307	644.64368	141.32812	177.72897	595.12476	150.82623	162.17752	527.29779	164.15302	163.61273	540.16272	277.25412	290.58240	366.01816	164.71442	297.73044	318.96460	164.56117	235.00999	348.30328	142.38155	250.51154	308.14780	145.20161	293.06543	158.65913	164.39691	260.92294	151.46240	238.85857	359.59229	129.60721	216.11295	157.63794	73.43067	209.43562	139.57138	87.53169	167.28127	207.48073	72.07417	114.66841
1221	4.88000	476.61151	1040.16199	341.69016	300.97623	979.91779	390.67688	461.14819	641.20465	420.48938	464.27628	580.28241	411.09900	386.06314	632.89392	413.79025	399.01874	574.15491	405.32413	454.57581	492.53415	395.90869	458.49799	491.90118	283.55652	538.21588	315.59155	393.77328	537.50952	269.11096	386.96439	477.37524	314.01636	400.08679	485.51944	266.76382	392.71045	507.28671	106.40888	355.77551	489.96005	119.90263	279.00986	578.89197	70.92126	327.75375	375.39557	51.79475	369.47635	346.62341	65.86098	313.81754	373.09467	54.81369	275.00024	465.61404	1030.90002	229.02003	290.67365	993.36932	185.96834	264.16974	617.11200	164.98174	235.35077	562.19354	178.99603	208.38504	644.39368	143.22318	172.83051	594.83447	150.98177	157.10284	527.19916	164.26895	159.06010	539.83624	277.41370	281.61008	362.79581	164.59491	287.55124	315.60181	164.38361	225.47217	346.55353	142.33763	240.07581	306.02264	145.07120	278.77222	155.60271	164.16782	246.56102	148.99557	238.55434	344.54251	124.78268	215.77887	141.57460	73.25520	209.19447	123.65458	87.92263	167.01323	191.26299	70.93979	114.38041
1222	4.88400	472.32227	1039.75012	341.35715	296.80753	979.27875	390.64722	458.79333	641.61499	420.51355	461.49387	580.12164	410.49374	383.34979	632.62628	413.31595	396.60077	573.94904	404.87430	452.71951	492.61127	395.51352	456.22519	491.85440	283.17578	537.12830	316.00217	393.26578	536.66394	269.62738	386.43954	476.48337	314.20819	399.76666	484.74817	266.93338	392.45526	507.18158	106.69906	355.47919	489.62402	120.06776	278.68045	578.76520	71.13786	327.49954	375.35446	51.78947	369.48413	346.52698	65.74697	313.80276	372.97275	54.75106	274.99341	461.16406	1030.54211	228.74327	286.07175	993.16486	185.84421	259.45932	616.64990	164.62704	230.88152	561.83228	178.74223	203.60492	644.02930	143.31505	168.10834	594.52832	150.96761	151.97382	527.02563	164.36401	154.53372	539.41571	277.50076	272.65332	359.62640	164.36726	277.40271	312.24182	164.22969	216.04097	344.78729	142.24890	229.65088	303.94058	144.90051	264.47760	152.61285	163.94768	232.19484	146.69978	238.33308	329.53751	120.31105	215.57089	125.49565	73.26347	209.02707	107.89663	88.28947	166.83655	175.12857	69.93725	114.13328
1223	4.88800	467.84256	1039.27380	341.10870	292.52042	978.82117	390.66589	455.58163	641.41986	419.76151	458.98029	580.20917	410.14066	380.49347	632.35529	412.76883	394.19119	573.82886	404.43442	450.69342	492.66165	395.15497	454.31595	492.05002	282.76364	536.03973	316.51324	392.73987	535.77295	270.06949	385.97299	475.08887	314.74741	399.33798	483.84494	267.11179	392.10327	506.98615	107.02166	355.12900	489.25641	120.22311	278.37936	578.64062	71.35721	327.25104	375.28442	51.77210	369.46027	346.35291	65.68103	313.90826	372.85352	54.67456	274.98923	456.65613	1030.09424	228.49638	281.37924	992.89441	185.80513	255.02382	616.18549	164.46594	226.40294	561.26245	178.56168	198.99832	643.55060	143.41855	163.69843	594.06433	151.12715	147.02391	526.72784	164.48175	149.81241	538.81921	278.02148	263.50565	356.37354	164.32001	267.13614	308.97083	163.93501	206.58290	343.01608	142.09955	219.15022	301.81461	144.67326	250.30537	149.81131	163.79520	217.94403	144.65219	238.07082	314.45343	115.95879	215.38051	109.49729	73.58224	208.82674	92.81120	88.85270	166.68073	158.91370	69.03731	114.04324
1224	4.89200	463.44070	1038.84216	340.77640	288.14279	978.30176	390.59109	452.69916	641.48090	419.36728	456.67609	580.63226	410.00186	377.67972	632.12213	412.33484	391.62323	573.58093	403.95151	448.62604	492.67776	394.74960	452.17987	492.08420	282.43314	534.91858	316.96713	392.26862	534.83319	270.52032	385.54337	472.71313	315.73773	399.52432	482.97180	267.38226	391.73026	506.77237	107.33420	354.81137	488.92322	120.39633	278.06189	578.46082	71.64434	326.99136	375.23911	51.78865	369.46011	346.24600	65.60477	313.76666	372.62421	54.70348	275.11115	452.07944	1029.57434	228.25308	276.76755	992.54651	185.70816	249.39302	615.72882	164.92493	222.04271	560.70685	178.39624	194.52722	643.01459	143.53618	159.32425	593.49823	151.15959	142.10628	526.39563	164.55826	145.57608	538.24774	277.94791	254.56674	353.31476	163.94014	256.87494	305.79181	163.59689	197.28810	341.70840	142.16635	208.72610	299.84280	144.53500	236.56506	147.21970	164.03090	203.56865	142.80827	237.88890	299.11771	111.94316	215.34183	93.49473	74.16530	208.80067	76.18861	90.03054	166.73976	142.87057	68.40332	113.93829
